<svg width="20" height="20" viewBox="0 0 20 20" fill="none" xmlns="http://www.w3.org/2000/svg">
<path d="M19.5145 18.4586L14.8214 13.7655C16.1843 12.1309 16.8646 10.0338 16.7206 7.91038C16.5767 5.787 15.6197 3.80084 14.0486 2.36511C12.4776 0.929384 10.4135 0.154621 8.28578 0.202003C6.15804 0.249385 4.13049 1.11526 2.62492 2.61951C1.11935 4.12375 0.251676 6.15053 0.202413 8.27822C0.153151 10.4059 0.926089 12.4707 2.36043 14.043C3.79477 15.6153 5.78008 16.5741 7.90334 16.7199C10.0266 16.8657 12.1243 16.1873 13.7601 14.8258L18.4533 19.5199C18.5229 19.5896 18.6057 19.6448 18.6967 19.6826C18.7878 19.7203 18.8853 19.7397 18.9839 19.7397C19.0824 19.7397 19.18 19.7203 19.2711 19.6826C19.3621 19.6448 19.4448 19.5896 19.5145 19.5199C19.5842 19.4502 19.6395 19.3675 19.6772 19.2764C19.7149 19.1854 19.7343 19.0878 19.7343 18.9893C19.7343 18.8907 19.7149 18.7931 19.6772 18.7021C19.6395 18.611 19.5842 18.5283 19.5145 18.4586ZM1.73388 8.48926C1.73388 7.15423 2.12977 5.84919 2.87146 4.73916C3.61316 3.62912 4.66737 2.76396 5.90077 2.25307C7.13417 1.74218 8.49137 1.60851 9.80074 1.86896C11.1101 2.12941 12.3129 2.77228 13.2569 3.71628C14.2009 4.66029 14.8437 5.86302 15.1042 7.1724C15.3646 8.48177 15.231 9.83897 14.7201 11.0724C14.2092 12.3058 13.344 13.36 12.234 14.1017C11.124 14.8434 9.81891 15.2393 8.48388 15.2393C6.69428 15.2373 4.97855 14.5255 3.71311 13.26C2.44767 11.9946 1.73587 10.2789 1.73388 8.48926Z" fill="#333333"/>
</svg>
